<svg width="12" height="16" viewBox="0 0 12 16" fill="none" xmlns="http://www.w3.org/2000/svg">
<path d="M11.245 14.498C11.435 14.4983 11.6177 14.5707 11.7564 14.7005C11.895 14.8303 11.9793 15.0079 11.9921 15.1974C12.0049 15.3869 11.9453 15.5742 11.8254 15.7215C11.7055 15.8688 11.5342 15.9651 11.346 15.991L11.245 15.998H0.750015C0.559992 15.9979 0.377074 15.9258 0.238224 15.796C0.0993729 15.6663 0.0149415 15.4887 0.00198952 15.2991C-0.0109625 15.1095 0.0485309 14.9221 0.168448 14.7747C0.288365 14.6273 0.459765 14.5309 0.648015 14.505L0.750015 14.498H11.245ZM6.00401 0C6.18525 7.6429e-06 6.36036 0.0656426 6.49695 0.184767C6.63353 0.303891 6.72237 0.468446 6.74701 0.648L6.75401 0.75L6.75302 10.943L9.71902 7.973C9.84594 7.84557 10.0144 7.76799 10.1938 7.75441C10.3731 7.74083 10.5513 7.79214 10.696 7.899L10.78 7.971C10.9073 8.09805 10.9847 8.2666 10.9981 8.44593C11.0115 8.62527 10.96 8.80345 10.853 8.948L10.781 9.032L6.53802 13.282L6.46802 13.345L6.37602 13.404L6.34002 13.425L6.24901 13.463L6.12901 13.493L6.05902 13.501L5.99901 13.503C5.94859 13.5029 5.89832 13.4975 5.84902 13.487L5.76702 13.464C5.67235 13.4332 5.58491 13.3836 5.51002 13.318L1.22002 9.033C1.08548 8.89934 1.00657 8.71968 0.99917 8.53018C0.991772 8.34068 1.05644 8.15542 1.18015 8.01168C1.30386 7.86794 1.47743 7.77641 1.66592 7.7555C1.8544 7.73459 2.04381 7.78587 2.19602 7.899L2.28002 7.972L5.25302 10.939V0.75C5.25302 0.551088 5.33203 0.360322 5.47268 0.21967C5.61334 0.0790175 5.8041 0 6.00302 0H6.00401Z" fill="black"/>
</svg>
